<svg width="146" height="150" viewBox="0 0 146 150" fill="none" xmlns="http://www.w3.org/2000/svg">
    <g clip-path="url(#clip0_87_6)">
        <path d="M72.6562 2.34375C32.5195 2.34375 0 34.8633 0 75C0 115.137 32.5195 147.656 72.6562 147.656C112.793 147.656 145.312 115.137 145.312 75C145.312 34.8633 112.793 2.34375 72.6562 2.34375ZM131.25 75C131.25 81.5918 130.107 87.9492 128.086 93.8672H122.139C120.879 93.8672 119.678 93.3691 118.799 92.4609L109.424 82.9102C108.105 81.5625 108.105 79.3652 109.453 78.0176L113.115 74.3555V71.8066C113.115 70.9277 112.764 70.0781 112.148 69.4629L109.395 66.709C108.779 66.0937 107.93 65.7422 107.051 65.7422H102.363C100.547 65.7422 99.0527 64.248 99.0527 62.4316C99.0527 61.5527 99.4043 60.7031 100.02 60.0879L102.773 57.334C103.389 56.7187 104.238 56.3672 105.117 56.3672H114.492C116.309 56.3672 117.803 54.873 117.803 53.0566V50.3027C117.803 48.4863 116.309 46.9922 114.492 46.9922H103.74C101.162 46.9922 99.0527 49.1016 99.0527 51.6797V52.998C99.0527 55.0195 97.7637 56.8066 95.8594 57.4512L86.6016 60.5273C85.6348 60.8496 84.9902 61.7285 84.9902 62.7539V63.3984C84.9902 64.6875 83.9355 65.7422 82.6465 65.7422H77.959C76.6699 65.7422 75.6152 64.6875 75.6152 63.3984C75.6152 62.1094 74.5605 61.0547 73.2715 61.0547H72.3633C71.4844 61.0547 70.6641 61.5527 70.2539 62.3438L67.5 67.8223C66.709 69.4043 65.0977 70.4004 63.3105 70.4004H56.8359C54.2578 70.4004 52.1484 68.291 52.1484 65.7129V58.3008C52.1484 57.0703 52.6465 55.8691 53.5254 54.9902L59.4141 49.1016C60.7617 47.7539 61.5234 45.9082 61.5234 43.9746C61.5234 42.9785 62.168 42.0703 63.1348 41.748L74.8535 37.8516C75.3516 37.6758 75.791 37.4121 76.1426 37.0605L83.9941 29.209C84.6094 28.5937 84.9609 27.7441 84.9609 26.8652C84.9609 25.0488 83.4668 23.5547 81.6504 23.5547H75.5859L70.8984 28.2422V30.5859C70.8984 31.875 69.8438 32.9297 68.5547 32.9297H63.8672C62.5781 32.9297 61.5234 31.875 61.5234 30.5859V24.7266C61.5234 23.9941 61.875 23.291 62.4609 22.8516L70.9277 16.4941C71.4844 16.4648 72.041 16.4062 72.5977 16.4062C104.971 16.4063 131.25 42.6855 131.25 75ZM38.1152 43.6816C38.1152 42.8027 38.4668 41.9531 39.082 41.3379L46.5234 33.8965C47.1387 33.2812 47.9883 32.9297 48.8672 32.9297C50.6836 32.9297 52.1777 34.4238 52.1777 36.2402V40.9277C52.1777 41.8066 51.8262 42.6562 51.2109 43.2715L48.457 46.0254C47.8418 46.6406 46.9922 46.9922 46.1133 46.9922H41.4258C39.6094 46.9922 38.1152 45.498 38.1152 43.6816ZM75.6152 133.447V131.367C75.6152 128.789 73.5059 126.68 70.9277 126.68H65.0098C61.8457 126.68 57.1875 125.127 54.6387 123.223L48.1348 118.33C44.7656 115.811 42.8027 111.855 42.8027 107.666V100.664C42.8027 95.9766 45.2637 91.6406 49.2773 89.2383L61.8457 81.709C63.9258 80.4785 66.2988 79.8047 68.7012 79.8047H77.8418C81.0352 79.8047 84.1113 80.9473 86.5137 82.998L99.1699 93.8672H104.531C107.021 93.8672 109.395 94.8633 111.152 96.6211L116.221 101.689C117.217 102.686 118.594 103.242 120 103.242H123.926C114.434 120.498 96.4453 132.393 75.6152 133.447Z" fill="#0B78FF"/>
    </g>
    <defs>
        <clipPath id="clip0_87_6">
            <rect width="145.312" height="150" fill="white"/>
        </clipPath>
    </defs>
</svg>