<?xml version="1.0" standalone="no"?>
<!DOCTYPE svg PUBLIC "-//W3C//DTD SVG 20010904//EN"
 "http://www.w3.org/TR/2001/REC-SVG-20010904/DTD/svg10.dtd">
<svg version="1.0" xmlns="http://www.w3.org/2000/svg"
 width="600.000000pt" height="600.000000pt" viewBox="0 0 600.000000 600.000000"
 preserveAspectRatio="xMidYMid meet">
<metadata>
Created by potrace 1.14, written by Peter Selinger 2001-2017
</metadata>
<g transform="translate(0.000000,600.000000) scale(0.100000,-0.100000)"
fill="#000000" stroke="none">
<path d="M2797 5903 c-2 -2 -44 -6 -162 -18 -27 -2 -66 -8 -85 -11 -19 -4 -45
-8 -57 -9 -12 -2 -34 -6 -50 -9 -15 -4 -39 -8 -53 -11 -21 -4 -74 -16 -90 -20
-3 -1 -18 -5 -35 -9 -16 -5 -68 -20 -115 -34 -47 -14 -90 -27 -96 -28 -40 -7
-392 -158 -404 -173 -3 -3 -27 -17 -55 -30 -95 -46 -369 -229 -442 -295 -6 -6
-33 -29 -60 -51 -109 -91 -301 -292 -395 -415 -23 -30 -45 -57 -48 -60 -3 -3
-19 -25 -35 -50 -16 -25 -32 -47 -36 -50 -5 -5 -60 -92 -103 -164 -99 -165
-251 -518 -281 -651 -2 -11 -15 -63 -29 -115 -13 -52 -27 -111 -30 -130 -3
-19 -8 -45 -10 -57 -3 -11 -8 -43 -12 -70 -3 -26 -8 -57 -10 -68 -18 -97 -25
-551 -11 -660 3 -22 8 -67 12 -100 4 -33 8 -62 10 -65 2 -3 6 -30 10 -60 4
-30 9 -58 11 -61 2 -3 6 -21 9 -40 19 -106 114 -419 136 -445 6 -8 9 -14 6
-14 -7 0 26 -77 90 -209 54 -113 127 -239 200 -344 29 -42 53 -81 53 -86 0 -5
3 -11 8 -13 4 -1 23 -23 41 -48 19 -25 39 -49 45 -55 6 -5 29 -32 51 -60 70
-88 326 -337 386 -377 15 -9 32 -23 40 -30 19 -19 215 -158 222 -158 3 0 25
-13 49 -29 74 -49 271 -152 348 -181 19 -7 40 -17 46 -22 30 -22 374 -133 479
-153 11 -3 43 -9 70 -14 28 -5 66 -13 85 -16 19 -4 46 -9 60 -10 14 -2 25 -4
25 -5 0 -1 23 -4 50 -6 28 -2 82 -7 120 -10 92 -9 333 -10 465 -1 98 7 127 10
190 22 14 3 43 7 65 11 97 13 281 59 410 102 77 25 142 46 145 47 5 1 50 21
144 62 75 34 238 118 288 150 21 12 42 23 47 23 5 0 11 3 13 8 2 4 41 32 88
62 47 30 87 58 90 61 3 4 37 30 75 60 39 29 84 65 100 79 53 44 289 283 335
339 25 29 51 59 58 67 6 7 12 15 12 19 0 3 9 16 21 28 26 27 177 256 210 317
13 25 26 47 29 50 14 14 121 246 157 340 25 65 63 176 67 195 2 6 9 30 16 55
7 25 14 50 16 55 1 6 9 37 17 70 8 33 18 78 23 100 4 22 9 47 10 55 2 8 5 33
9 55 3 22 7 50 9 62 3 12 7 50 11 85 3 35 8 83 10 108 6 56 6 347 1 415 -6 67
-16 165 -20 190 -2 11 -8 45 -12 75 -4 30 -8 57 -9 60 -1 3 -4 19 -8 35 -4 17
-9 41 -12 55 -35 173 -108 397 -186 567 -10 23 -19 45 -19 48 0 4 -9 19 -19
33 -10 15 -19 29 -19 32 0 8 -26 65 -32 70 -3 3 -14 24 -25 47 -11 24 -23 43
-27 43 -5 0 -8 5 -8 11 0 6 -13 30 -30 54 -16 24 -30 48 -30 54 0 6 -4 11 -8
11 -5 0 -14 10 -19 23 -10 20 -122 175 -148 203 -5 7 -26 31 -45 55 -57 73
-309 320 -400 392 -268 214 -561 375 -888 489 -116 40 -360 102 -447 113 -11
2 -37 6 -58 9 -40 6 -95 13 -175 22 -45 5 -441 11 -445 7z m378 -568 c39 -4
77 -7 85 -7 77 -3 397 -76 475 -108 11 -4 43 -16 70 -25 69 -24 124 -49 230
-101 83 -42 254 -140 265 -153 3 -3 28 -22 55 -41 55 -38 59 -41 161 -128 100
-85 210 -198 290 -297 64 -80 164 -222 164 -234 0 -6 5 -11 10 -11 6 0 10 -5
10 -10 0 -6 16 -35 35 -65 19 -30 33 -55 30 -55 -2 0 8 -21 23 -47 37 -65 134
-296 133 -318 0 -2 6 -24 15 -46 16 -46 61 -229 69 -283 25 -153 33 -272 30
-446 -2 -107 -5 -204 -8 -215 -2 -11 -8 -47 -13 -80 -4 -33 -8 -62 -9 -65 -1
-3 -5 -25 -9 -50 -5 -25 -10 -52 -11 -60 -8 -44 -68 -236 -75 -240 -5 -3 -68
-5 -142 -4 -95 1 -143 5 -168 16 -44 19 -451 433 -465 474 -22 60 -1 108 85
194 43 43 83 87 88 97 13 27 6 140 -11 166 -18 27 -112 121 -152 152 -27 21
-42 23 -172 27 -135 3 -143 4 -168 28 -49 45 -62 90 -44 146 11 37 168 193
195 195 11 1 109 3 219 4 110 2 210 3 222 4 28 1 82 47 95 80 16 43 12 184 -6
220 -25 48 -68 70 -136 71 -43 1 -144 1 -157 1 -23 -2 -46 -2 -167 -2 -121 0
-168 -11 -217 -51 -32 -26 -52 -83 -56 -153 -4 -85 -15 -122 -48 -157 -36 -39
-56 -48 -265 -117 -102 -34 -195 -66 -207 -72 -25 -13 -39 -46 -46 -108 -9
-76 -28 -85 -168 -89 -162 -5 -195 10 -205 97 -6 50 -39 79 -96 86 -46 6 -78
-4 -103 -29 -6 -6 -36 -60 -67 -121 -80 -159 -89 -172 -133 -197 -37 -21 -51
-22 -220 -22 -169 0 -182 1 -220 22 -46 26 -84 76 -94 124 -3 18 -6 110 -6
204 1 154 3 174 23 212 12 23 85 105 163 183 152 151 171 181 188 289 15 95
19 97 236 166 44 14 87 28 95 31 8 4 18 7 22 7 3 1 10 4 14 9 4 4 14 7 22 7 9
0 53 14 98 31 83 30 84 31 250 197 92 92 174 178 182 191 18 26 25 98 11 107
-5 3 -7 9 -5 13 8 12 -33 52 -68 66 -20 8 -78 13 -161 13 l-130 0 -94 -93 -94
-93 -2 -60 c-2 -66 -22 -108 -58 -121 -12 -5 -74 -8 -137 -7 -171 2 -178 10
-178 206 0 152 9 185 61 215 17 10 34 21 37 25 19 24 261 197 288 205 34 11
119 11 247 0z m-1055 -683 c40 -38 48 -72 46 -202 -1 -145 -3 -150 -99 -243
-68 -66 -104 -88 -144 -87 -16 1 -54 1 -86 0 -32 0 -62 2 -67 5 -5 3 -11 1
-15 -4 -4 -7 -15 -7 -30 -1 -14 5 -25 7 -25 4 0 -10 -61 38 -75 59 -22 36 -24
81 -5 123 21 46 339 364 364 364 9 0 16 4 16 9 0 14 101 -9 120 -27z m1210
-1863 c80 -22 179 -74 215 -113 6 -6 30 -27 55 -47 25 -20 60 -51 79 -68 19
-18 42 -38 51 -44 9 -7 43 -35 76 -64 32 -28 69 -60 80 -70 12 -10 47 -40 79
-68 32 -27 65 -54 73 -59 9 -5 77 -10 151 -12 75 -1 147 -5 161 -8 71 -16 135
-62 267 -192 76 -75 154 -144 173 -153 25 -13 64 -19 135 -20 55 -2 101 -4
103 -6 2 -2 -2 -14 -9 -27 -14 -28 -140 -221 -148 -228 -4 -3 -20 -23 -36 -45
-51 -68 -67 -86 -175 -197 -58 -60 -131 -130 -163 -156 -32 -26 -68 -55 -80
-66 -12 -10 -33 -26 -47 -35 -14 -9 -29 -20 -35 -24 -15 -13 -154 -100 -210
-133 -158 -91 -466 -208 -631 -239 -10 -2 -19 -4 -19 -5 0 -1 -11 -3 -25 -5
-14 -2 -52 -8 -85 -14 -59 -11 -172 -23 -229 -25 l-30 -1 -2 69 c-3 69 -14 96
-58 144 -42 46 -73 53 -262 56 -195 4 -213 6 -324 43 -105 35 -159 67 -340
204 -174 131 -225 183 -270 274 -51 104 -59 162 -56 403 3 206 4 221 29 291
15 41 30 77 35 80 4 4 14 19 22 35 38 74 125 140 407 308 298 178 365 213 434
223 24 4 45 8 47 9 1 2 113 3 247 3 208 0 256 -3 315 -18z"/>
</g>
</svg>
