<?xml version="1.0" encoding="utf-8"?>
<!-- Generator: Adobe Illustrator 25.0.0, SVG Export Plug-In . SVG Version: 6.00 Build 0)  -->
<svg version="1.1" id="Layer_1" xmlns="http://www.w3.org/2000/svg" xmlns:xlink="http://www.w3.org/1999/xlink" x="0px" y="0px"
	 viewBox="0 0 249.4 51" style="enable-background:new 0 0 249.4 51;" xml:space="preserve">
<style type="text/css">
	.st0{fill:#FFFFFF;}
	.st1{fill:#ffd700;}
</style>
<path class="st1" d="M37.5,0h-24C6.1,0,0,6.1,0,13.5v24C0,45,6.1,51,13.5,51h24C45,51,51,45,51,37.5v-24C51,6.1,45,0,37.5,0z
	 M14.3,14.3v2.5h21.2c4.8,0,8.7,3.9,8.7,8.7v3c-2.1-2.6-5.3-4.2-8.7-4.2H15.5c-4.8,0-8.7-3.9-8.7-8.7s3.9-8.7,8.7-8.7h19.9
	c4.8,0,8.7,3.9,8.7,8.7v3c-2.1-2.6-5.3-4.2-8.7-4.2H14.3z M35.5,44.2H15.5c-4.8,0-8.7-3.9-8.7-8.7v-3c2.1,2.6,5.3,4.2,8.7,4.2h21.1
	v-2.5H15.5c-4.8,0-8.7-3.9-8.7-8.7v-3c2.1,2.6,5.3,4.2,8.7,4.2h19.9c4.8,0,8.7,3.9,8.7,8.7S40.3,44.2,35.5,44.2z"/>
<g>
	<path class="st1" d="M79.1,41.5c-3.1,0-5.8-0.7-8-2.2c-2.2-1.5-3.8-3.5-4.7-6l3.8-2.2c1.3,4,4.3,6.1,8.9,6.1c2.3,0,4-0.5,5.3-1.4
		c1.2-0.9,1.8-2.2,1.8-3.7c0-1.6-0.6-2.8-1.8-3.6c-1.2-0.8-3.2-1.6-6.1-2.5c-1.4-0.4-2.5-0.8-3.2-1.1c-0.7-0.3-1.6-0.7-2.7-1.2
		c-1.1-0.6-1.9-1.1-2.5-1.7c-0.5-0.6-1-1.4-1.5-2.3c-0.4-1-0.6-2-0.6-3.2c0-2.9,1-5.2,3.1-6.9c2-1.7,4.5-2.6,7.4-2.6
		c2.6,0,4.9,0.7,6.9,2c2,1.3,3.4,3.1,4.4,5.3L86,16.3c-1.4-3.4-4-5.2-7.6-5.2c-1.8,0-3.3,0.4-4.4,1.3c-1.1,0.9-1.7,2.1-1.7,3.6
		c0,1.5,0.5,2.6,1.6,3.3c1.1,0.8,2.9,1.6,5.4,2.4c0.9,0.3,1.6,0.5,2,0.6c0.4,0.1,1,0.4,1.8,0.7c0.8,0.3,1.4,0.6,1.8,0.8
		c0.4,0.2,0.9,0.5,1.6,0.8c0.7,0.4,1.1,0.7,1.5,1c0.3,0.3,0.7,0.7,1.1,1.2c0.4,0.5,0.7,0.9,0.9,1.4c0.2,0.5,0.4,1,0.5,1.6
		c0.1,0.6,0.2,1.3,0.2,2c0,2.9-1.1,5.3-3.2,7C85.3,40.6,82.6,41.5,79.1,41.5z"/>
	<path class="st1" d="M97.9,30.8c0.4,2.1,1.4,3.8,2.9,5c1.5,1.2,3.4,1.8,5.7,1.8c3.2,0,5.4-1.2,6.9-3.5l3.5,2
		c-2.3,3.6-5.8,5.4-10.5,5.4c-3.8,0-6.9-1.2-9.2-3.6c-2.4-2.4-3.6-5.4-3.6-9c0-3.6,1.2-6.6,3.5-9c2.3-2.4,5.3-3.6,9-3.6
		c3.5,0,6.4,1.2,8.6,3.7c2.2,2.5,3.3,5.4,3.3,8.9c0,0.6,0,1.2-0.1,1.9H97.9z M106.2,20.3c-2.2,0-4.1,0.6-5.5,1.9
		c-1.5,1.3-2.4,2.9-2.7,5h16c-0.4-2.3-1.2-4-2.7-5.2C109.8,20.9,108.1,20.3,106.2,20.3z"/>
	<path class="st1" d="M124.4,12.6c-0.8,0-1.5-0.3-2-0.8c-0.5-0.5-0.8-1.2-0.8-2c0-0.8,0.3-1.4,0.8-2c0.5-0.6,1.2-0.8,2-0.8
		c0.8,0,1.4,0.3,2,0.8c0.5,0.6,0.8,1.2,0.8,2c0,0.8-0.3,1.4-0.8,2C125.8,12.4,125.2,12.6,124.4,12.6z M122.3,40.9V17h4.2v23.9H122.3
		z"/>
	<path class="st1" d="M152,17h4.1v22.9c0,3.5-1.2,6.3-3.6,8.2c-2.4,2-5.3,2.9-8.6,2.9c-2.7,0-5-0.5-6.9-1.5c-1.9-1-3.4-2.4-4.4-4.3
		l3.6-2.1c1.3,2.7,3.9,4,7.8,4c2.5,0,4.4-0.7,5.8-2c1.4-1.3,2.1-3.1,2.1-5.3v-3.4c-2.1,3.2-5.1,4.8-9,4.8c-3.4,0-6.3-1.2-8.6-3.6
		c-2.4-2.4-3.5-5.4-3.5-8.8c0-3.5,1.2-6.4,3.5-8.8c2.4-2.4,5.2-3.6,8.6-3.6c3.9,0,6.9,1.6,9,4.7V17z M137.4,34.8
		c1.6,1.6,3.6,2.4,6.1,2.4c2.4,0,4.4-0.8,6.1-2.4c1.6-1.6,2.4-3.6,2.4-6.1c0-2.4-0.8-4.4-2.4-6c-1.6-1.6-3.6-2.4-6.1-2.4
		c-2.4,0-4.4,0.8-6.1,2.4c-1.6,1.6-2.4,3.6-2.4,6C135,31.2,135.8,33.2,137.4,34.8z"/>
	<path class="st1" d="M164.9,30.8c0.4,2.1,1.4,3.8,2.9,5c1.5,1.2,3.4,1.8,5.7,1.8c3.2,0,5.4-1.2,6.9-3.5l3.5,2
		c-2.3,3.6-5.8,5.4-10.5,5.4c-3.8,0-6.9-1.2-9.2-3.6c-2.4-2.4-3.6-5.4-3.6-9c0-3.6,1.2-6.6,3.5-9c2.3-2.4,5.3-3.6,9-3.6
		c3.5,0,6.4,1.2,8.6,3.7c2.2,2.5,3.3,5.4,3.3,8.9c0,0.6,0,1.2-0.1,1.9H164.9z M173.1,20.3c-2.2,0-4.1,0.6-5.5,1.9
		c-1.5,1.3-2.4,2.9-2.7,5h15.9c-0.4-2.3-1.2-4-2.7-5.2C176.7,20.9,175,20.3,173.1,20.3z"/>
	<path class="st1" d="M193.5,21c1.4-3,3.9-4.4,7.4-4.4v4.3c-2-0.1-3.8,0.4-5.3,1.6c-1.5,1.2-2.2,3.1-2.2,5.7v12.7h-4.2V17h4.2V21z"
		/>
	<path class="st1" d="M217.4,7.4h4.4v33.4h-4.4V7.4z"/>
	<path class="st1" d="M249.4,7.4v4.2h-9.9v29.2h-4.4V11.6h-9.8V7.4H249.4z"/>
</g>
</svg>
